<?xml version="1.0"?>
<svg xmlns="http://www.w3.org/2000/svg">
    <rect x="60.0" y="60.0" width="60.0" height="60.0" fill="black"/>
    <rect x="20.0" y="20.0" width="20.0" height="20.0" fill="black"/>
    <rect x="20.0" y="80.0" width="20.0" height="20.0" fill="black"/>
    <rect x="20.0" y="140.0" width="20.0" height="20.0" fill="black"/>
    <rect x="60.0" y="60.0" width="20.0" height="20.0" fill="black"/>
    <rect x="80.0" y="20.0" width="20.0" height="20.0" fill="black"/>
    <rect x="80.0" y="80.0" width="20.0" height="20.0" fill="black"/>
    <rect x="80.0" y="140.0" width="20.0" height="20.0" fill="black"/>
    <rect x="140.0" y="20.0" width="20.0" height="20.0" fill="black"/>
    <rect x="140.0" y="80.0" width="20.0" height="20.0" fill="black"/>
    <rect x="140.0" y="140.0" width="20.0" height="20.0" fill="black"/>
    <rect x="6.666666666666667" y="6.666666666666667" width="6.666666666666667" height="6.666666666666667" fill="black"/>
    <rect x="6.666666666666667" y="26.666666666666668" width="6.666666666666667" height="6.666666666666667" fill="black"/>
    <rect x="6.666666666666667" y="46.66666666666667" width="6.666666666666667" height="6.666666666666667" fill="black"/>
    <rect x="6.666666666666667" y="66.66666666666667" width="6.666666666666667" height="6.666666666666667" fill="black"/>
    <rect x="6.666666666666667" y="86.66666666666667" width="6.666666666666667" height="6.666666666666667" fill="black"/>
    <rect x="6.666666666666667" y="106.66666666666667" width="6.666666666666667" height="6.666666666666667" fill="black"/>
    <rect x="6.666666666666667" y="126.66666666666667" width="6.666666666666667" height="6.666666666666667" fill="black"/>
    <rect x="6.666666666666667" y="146.66666666666669" width="6.666666666666667" height="6.666666666666667" fill="black"/>
    <rect x="6.666666666666667" y="166.66666666666669" width="6.666666666666667" height="6.666666666666667" fill="black"/>
    <rect x="20.0" y="20.0" width="6.666666666666667" height="6.666666666666667" fill="black"/>
    <rect x="20.0" y="80.0" width="6.666666666666667" height="6.666666666666667" fill="black"/>
    <rect x="20.0" y="140.0" width="6.666666666666667" height="6.666666666666667" fill="black"/>
    <rect x="26.666666666666668" y="6.666666666666667" width="6.666666666666667" height="6.666666666666667" fill="black"/>
    <rect x="26.666666666666668" y="26.666666666666668" width="6.666666666666667" height="6.666666666666667" fill="black"/>
    <rect x="26.666666666666668" y="46.66666666666667" width="6.666666666666667" height="6.666666666666667" fill="black"/>
    <rect x="26.666666666666668" y="66.66666666666667" width="6.666666666666667" height="6.666666666666667" fill="black"/>
    <rect x="26.666666666666668" y="86.66666666666667" width="6.666666666666667" height="6.666666666666667" fill="black"/>
    <rect x="26.666666666666668" y="106.66666666666667" width="6.666666666666667" height="6.666666666666667" fill="black"/>
    <rect x="26.666666666666668" y="126.66666666666667" width="6.666666666666667" height="6.666666666666667" fill="black"/>
    <rect x="26.666666666666668" y="146.66666666666669" width="6.666666666666667" height="6.666666666666667" fill="black"/>
    <rect x="26.666666666666668" y="166.66666666666669" width="6.666666666666667" height="6.666666666666667" fill="black"/>
    <rect x="46.66666666666667" y="6.666666666666667" width="6.666666666666667" height="6.666666666666667" fill="black"/>
    <rect x="46.66666666666667" y="26.666666666666668" width="6.666666666666667" height="6.666666666666667" fill="black"/>
    <rect x="46.66666666666667" y="46.66666666666667" width="6.666666666666667" height="6.666666666666667" fill="black"/>
    <rect x="46.66666666666667" y="66.66666666666667" width="6.666666666666667" height="6.666666666666667" fill="black"/>
    <rect x="46.66666666666667" y="86.66666666666667" width="6.666666666666667" height="6.666666666666667" fill="black"/>
    <rect x="46.66666666666667" y="106.66666666666667" width="6.666666666666667" height="6.666666666666667" fill="black"/>
    <rect x="46.66666666666667" y="126.66666666666667" width="6.666666666666667" height="6.666666666666667" fill="black"/>
    <rect x="46.66666666666667" y="146.66666666666669" width="6.666666666666667" height="6.666666666666667" fill="black"/>
    <rect x="46.66666666666667" y="166.66666666666669" width="6.666666666666667" height="6.666666666666667" fill="black"/>
    <rect x="60.0" y="60.0" width="6.666666666666667" height="6.666666666666667" fill="black"/>
    <rect x="66.66666666666667" y="6.666666666666667" width="6.666666666666667" height="6.666666666666667" fill="black"/>
    <rect x="66.66666666666667" y="26.666666666666668" width="6.666666666666667" height="6.666666666666667" fill="black"/>
    <rect x="66.66666666666667" y="46.66666666666667" width="6.666666666666667" height="6.666666666666667" fill="black"/>
    <rect x="66.66666666666667" y="66.66666666666667" width="6.666666666666667" height="6.666666666666667" fill="black"/>
    <rect x="66.66666666666667" y="86.66666666666667" width="6.666666666666667" height="6.666666666666667" fill="black"/>
    <rect x="66.66666666666667" y="106.66666666666667" width="6.666666666666667" height="6.666666666666667" fill="black"/>
    <rect x="66.66666666666667" y="126.66666666666667" width="6.666666666666667" height="6.666666666666667" fill="black"/>
    <rect x="66.66666666666667" y="146.66666666666669" width="6.666666666666667" height="6.666666666666667" fill="black"/>
    <rect x="66.66666666666667" y="166.66666666666669" width="6.666666666666667" height="6.666666666666667" fill="black"/>
    <rect x="80.0" y="20.0" width="6.666666666666667" height="6.666666666666667" fill="black"/>
    <rect x="80.0" y="80.0" width="6.666666666666667" height="6.666666666666667" fill="black"/>
    <rect x="80.0" y="140.0" width="6.666666666666667" height="6.666666666666667" fill="black"/>
    <rect x="86.66666666666667" y="6.666666666666667" width="6.666666666666667" height="6.666666666666667" fill="black"/>
    <rect x="86.66666666666667" y="26.666666666666668" width="6.666666666666667" height="6.666666666666667" fill="black"/>
    <rect x="86.66666666666667" y="46.66666666666667" width="6.666666666666667" height="6.666666666666667" fill="black"/>
    <rect x="86.66666666666667" y="66.66666666666667" width="6.666666666666667" height="6.666666666666667" fill="black"/>
    <rect x="86.66666666666667" y="86.66666666666667" width="6.666666666666667" height="6.666666666666667" fill="black"/>
    <rect x="86.66666666666667" y="106.66666666666667" width="6.666666666666667" height="6.666666666666667" fill="black"/>
    <rect x="86.66666666666667" y="126.66666666666667" width="6.666666666666667" height="6.666666666666667" fill="black"/>
    <rect x="86.66666666666667" y="146.66666666666669" width="6.666666666666667" height="6.666666666666667" fill="black"/>
    <rect x="86.66666666666667" y="166.66666666666669" width="6.666666666666667" height="6.666666666666667" fill="black"/>
    <rect x="106.66666666666667" y="6.666666666666667" width="6.666666666666667" height="6.666666666666667" fill="black"/>
    <rect x="106.66666666666667" y="26.666666666666668" width="6.666666666666667" height="6.666666666666667" fill="black"/>
    <rect x="106.66666666666667" y="46.66666666666667" width="6.666666666666667" height="6.666666666666667" fill="black"/>
    <rect x="106.66666666666667" y="66.66666666666667" width="6.666666666666667" height="6.666666666666667" fill="black"/>
    <rect x="106.66666666666667" y="86.66666666666667" width="6.666666666666667" height="6.666666666666667" fill="black"/>
    <rect x="106.66666666666667" y="106.66666666666667" width="6.666666666666667" height="6.666666666666667" fill="black"/>
    <rect x="106.66666666666667" y="126.66666666666667" width="6.666666666666667" height="6.666666666666667" fill="black"/>
    <rect x="106.66666666666667" y="146.66666666666669" width="6.666666666666667" height="6.666666666666667" fill="black"/>
    <rect x="106.66666666666667" y="166.66666666666669" width="6.666666666666667" height="6.666666666666667" fill="black"/>
    <rect x="126.66666666666667" y="6.666666666666667" width="6.666666666666667" height="6.666666666666667" fill="black"/>
    <rect x="126.66666666666667" y="26.666666666666668" width="6.666666666666667" height="6.666666666666667" fill="black"/>
    <rect x="126.66666666666667" y="46.66666666666667" width="6.666666666666667" height="6.666666666666667" fill="black"/>
    <rect x="126.66666666666667" y="66.66666666666667" width="6.666666666666667" height="6.666666666666667" fill="black"/>
    <rect x="126.66666666666667" y="86.66666666666667" width="6.666666666666667" height="6.666666666666667" fill="black"/>
    <rect x="126.66666666666667" y="106.66666666666667" width="6.666666666666667" height="6.666666666666667" fill="black"/>
    <rect x="126.66666666666667" y="126.66666666666667" width="6.666666666666667" height="6.666666666666667" fill="black"/>
    <rect x="126.66666666666667" y="146.66666666666669" width="6.666666666666667" height="6.666666666666667" fill="black"/>
    <rect x="126.66666666666667" y="166.66666666666669" width="6.666666666666667" height="6.666666666666667" fill="black"/>
    <rect x="140.0" y="20.0" width="6.666666666666667" height="6.666666666666667" fill="black"/>
    <rect x="140.0" y="80.0" width="6.666666666666667" height="6.666666666666667" fill="black"/>
    <rect x="140.0" y="140.0" width="6.666666666666667" height="6.666666666666667" fill="black"/>
    <rect x="146.66666666666669" y="6.666666666666667" width="6.666666666666667" height="6.666666666666667" fill="black"/>
    <rect x="146.66666666666669" y="26.666666666666668" width="6.666666666666667" height="6.666666666666667" fill="black"/>
    <rect x="146.66666666666669" y="46.66666666666667" width="6.666666666666667" height="6.666666666666667" fill="black"/>
    <rect x="146.66666666666669" y="66.66666666666667" width="6.666666666666667" height="6.666666666666667" fill="black"/>
    <rect x="146.66666666666669" y="86.66666666666667" width="6.666666666666667" height="6.666666666666667" fill="black"/>
    <rect x="146.66666666666669" y="106.66666666666667" width="6.666666666666667" height="6.666666666666667" fill="black"/>
    <rect x="146.66666666666669" y="126.66666666666667" width="6.666666666666667" height="6.666666666666667" fill="black"/>
    <rect x="146.66666666666669" y="146.66666666666669" width="6.666666666666667" height="6.666666666666667" fill="black"/>
    <rect x="146.66666666666669" y="166.66666666666669" width="6.666666666666667" height="6.666666666666667" fill="black"/>
    <rect x="166.66666666666669" y="6.666666666666667" width="6.666666666666667" height="6.666666666666667" fill="black"/>
    <rect x="166.66666666666669" y="26.666666666666668" width="6.666666666666667" height="6.666666666666667" fill="black"/>
    <rect x="166.66666666666669" y="46.66666666666667" width="6.666666666666667" height="6.666666666666667" fill="black"/>
    <rect x="166.66666666666669" y="66.66666666666667" width="6.666666666666667" height="6.666666666666667" fill="black"/>
    <rect x="166.66666666666669" y="86.66666666666667" width="6.666666666666667" height="6.666666666666667" fill="black"/>
    <rect x="166.66666666666669" y="106.66666666666667" width="6.666666666666667" height="6.666666666666667" fill="black"/>
    <rect x="166.66666666666669" y="126.66666666666667" width="6.666666666666667" height="6.666666666666667" fill="black"/>
    <rect x="166.66666666666669" y="146.66666666666669" width="6.666666666666667" height="6.666666666666667" fill="black"/>
    <rect x="166.66666666666669" y="166.66666666666669" width="6.666666666666667" height="6.666666666666667" fill="black"/>
</svg>